<svg width="307" height="42" viewBox="0 0 307 42" fill="none" xmlns="http://www.w3.org/2000/svg">
<path d="M64.096 35.24C62.608 35.24 61.272 34.88 60.088 34.16C58.92 33.44 57.992 32.432 57.304 31.136C56.632 29.824 56.296 28.312 56.296 26.6C56.296 24.872 56.632 23.36 57.304 22.064C57.992 20.768 58.92 19.76 60.088 19.04C61.272 18.32 62.608 17.96 64.096 17.96C65.584 17.96 66.912 18.32 68.08 19.04C69.264 19.76 70.192 20.776 70.864 22.088C71.536 23.384 71.872 24.888 71.872 26.6C71.872 28.328 71.536 29.84 70.864 31.136C70.192 32.432 69.264 33.44 68.08 34.16C66.912 34.88 65.584 35.24 64.096 35.24ZM64.096 33.968C65.312 33.968 66.4 33.664 67.36 33.056C68.336 32.448 69.104 31.592 69.664 30.488C70.24 29.384 70.528 28.088 70.528 26.6C70.528 25.096 70.24 23.792 69.664 22.688C69.104 21.584 68.336 20.736 67.36 20.144C66.4 19.536 65.312 19.232 64.096 19.232C62.88 19.232 61.784 19.536 60.808 20.144C59.848 20.736 59.08 21.584 58.504 22.688C57.944 23.792 57.664 25.096 57.664 26.6C57.664 28.088 57.944 29.384 58.504 30.488C59.08 31.592 59.848 32.448 60.808 33.056C61.784 33.664 62.88 33.968 64.096 33.968ZM77.4601 35V18.2H78.7801V35H77.4601ZM78.2041 27.92V26.648H83.3401C84.5081 26.648 85.4121 26.328 86.0521 25.688C86.7081 25.032 87.0361 24.16 87.0361 23.072H88.4281C88.4281 24.528 87.9721 25.704 87.0601 26.6C86.1481 27.48 84.9081 27.92 83.3401 27.92H78.2041ZM87.0361 23.072C87.0361 21.968 86.7081 21.096 86.0521 20.456C85.4121 19.816 84.5081 19.496 83.3401 19.496H78.2041V18.2H83.3401C84.9081 18.2 86.1481 18.648 87.0601 19.544C87.9721 20.424 88.4281 21.6 88.4281 23.072H87.0361ZM87.0841 35L82.6921 27.608L83.8921 27.032L88.5001 34.808V35H87.0841ZM94.4946 30.176V28.28L103.711 18.2H105.295V18.392L94.4946 30.176ZM93.8466 35V18.2H95.1666V35H93.8466ZM104.359 35L97.6146 26.096L98.5506 25.184L105.823 34.808V35H104.359ZM115.402 35.24C114.282 35.24 113.274 35.032 112.378 34.616C111.482 34.2 110.746 33.616 110.17 32.864C109.594 32.112 109.202 31.248 108.994 30.272L110.122 29.984L110.362 30.032C110.554 30.816 110.89 31.504 111.37 32.096C111.85 32.688 112.434 33.152 113.122 33.488C113.826 33.808 114.578 33.968 115.378 33.968C116.258 33.968 117.034 33.832 117.706 33.56C118.378 33.272 118.906 32.872 119.29 32.36C119.69 31.848 119.89 31.248 119.89 30.56C119.89 29.664 119.618 28.984 119.074 28.52C118.546 28.04 117.834 27.68 116.938 27.44L113.65 26.528C112.386 26.176 111.426 25.632 110.77 24.896C110.114 24.144 109.786 23.272 109.786 22.28C109.786 21.416 110.01 20.664 110.458 20.024C110.906 19.384 111.522 18.88 112.306 18.512C113.106 18.144 114.026 17.96 115.066 17.96C116.074 17.96 116.986 18.152 117.802 18.536C118.634 18.92 119.314 19.464 119.842 20.168C120.37 20.872 120.722 21.696 120.898 22.64L119.77 22.88L119.506 22.832C119.282 21.728 118.77 20.856 117.97 20.216C117.17 19.56 116.202 19.232 115.066 19.232C113.898 19.232 112.954 19.512 112.234 20.072C111.514 20.616 111.154 21.36 111.154 22.304C111.154 23.024 111.41 23.632 111.922 24.128C112.434 24.624 113.186 25.008 114.178 25.28L117.466 26.192C118.666 26.512 119.594 27.04 120.25 27.776C120.922 28.496 121.258 29.392 121.258 30.464C121.258 31.424 121.01 32.264 120.514 32.984C120.034 33.688 119.354 34.24 118.474 34.64C117.594 35.04 116.57 35.24 115.402 35.24ZM137.82 35V18.2H139.14V35H137.82ZM126.924 35V18.2H128.244V35H126.924ZM127.62 27.008V25.736H138.66V27.008H127.62ZM156.409 35L150.217 18.632L150.025 18.2H151.417L157.801 34.808V35H156.409ZM143.641 35V34.808L150.025 18.2H151.417L151.201 18.632L145.033 35H143.641ZM145.993 30.32L146.545 29.048H155.041L155.569 30.32H145.993ZM162.323 35V18.2H163.643V35H162.323ZM163.067 27.92V26.648H168.203C169.371 26.648 170.275 26.328 170.915 25.688C171.571 25.032 171.899 24.16 171.899 23.072H173.291C173.291 24.528 172.835 25.704 171.923 26.6C171.011 27.48 169.771 27.92 168.203 27.92H163.067ZM171.899 23.072C171.899 21.968 171.571 21.096 170.915 20.456C170.275 19.816 169.371 19.496 168.203 19.496H163.067V18.2H168.203C169.771 18.2 171.011 18.648 171.923 19.544C172.835 20.424 173.291 21.6 173.291 23.072H171.899ZM171.947 35L167.555 27.608L168.755 27.032L173.363 34.808V35H171.947ZM178.709 35V18.2H180.029V35H178.709ZM179.405 35V33.728H189.125V35H179.405ZM179.405 27.128V25.856H188.645V27.128H179.405ZM179.405 19.472V18.2H189.125V19.472H179.405Z" fill="#3B82F6"/>
<line y1="-1" x2="39.5289" y2="-1" transform="matrix(0.411702 0.911318 -0.942627 0.333846 0 1.65527)" stroke="#3B82F6" stroke-width="2"/>
<line y1="1.15527" x2="12.5755" y2="1.15527" stroke="#3B82F6"/>
<line y1="-1" x2="25.753" y2="-1" transform="matrix(0.402138 0.915579 -0.945518 0.325568 11.0957 1.65527)" stroke="#3B82F6" stroke-width="2"/>
<line y1="-1" x2="39.8324" y2="-1" transform="matrix(-0.389994 0.920817 -0.949054 -0.315115 31.8086 1)" stroke="#3B82F6" stroke-width="2"/>
<line y1="-1" x2="27.2503" y2="-1" transform="matrix(0.407188 0.913344 -0.944004 0.329935 31.8086 1.65527)" stroke="#3B82F6" stroke-width="2"/>
<line y1="-1" x2="25.753" y2="-1" transform="matrix(0.402138 0.915579 -0.945518 0.325568 26.6309 14.0996)" stroke="#3B82F6" stroke-width="2"/>
<line y1="-1" x2="40.4324" y2="-1" transform="matrix(0.420798 -0.907154 0.939789 0.341756 38.4658 38.333)" stroke="#3B82F6" stroke-width="2"/>
<line x1="31.8086" y1="1.15527" x2="32.5483" y2="1.15527" stroke="#3B82F6"/>
<line x1="32.5479" y1="1.15527" x2="33.2876" y2="1.15527" stroke="#3B82F6"/>
</svg>
